<?xml version="1.0" encoding="UTF-8" standalone="no"?>
<!-- Generator: Adobe Illustrator 19.1.1, SVG Export Plug-In . SVG Version: 6.00 Build 0)  -->

<svg
   xmlns:dc="http://purl.org/dc/elements/1.1/"
   xmlns:cc="http://creativecommons.org/ns#"
   xmlns:rdf="http://www.w3.org/1999/02/22-rdf-syntax-ns#"
   xmlns:svg="http://www.w3.org/2000/svg"
   xmlns="http://www.w3.org/2000/svg"
   xmlns:sodipodi="http://sodipodi.sourceforge.net/DTD/sodipodi-0.dtd"
   xmlns:inkscape="http://www.inkscape.org/namespaces/inkscape"
   version="1.1"
   id="Слой_1"
   x="0px"
   y="0px"
   viewBox="0 0 65.599996 20.000002"
   xml:space="preserve"
   sodipodi:docname="Logo 1.svg"
   width="65.599998"
   height="20.000002"
   inkscape:version="0.92.2 (unknown)"><metadata
     id="metadata30"><rdf:RDF><cc:Work
         rdf:about=""><dc:format>image/svg+xml</dc:format><dc:type
           rdf:resource="http://purl.org/dc/dcmitype/StillImage" /><dc:title></dc:title></cc:Work></rdf:RDF></metadata><defs
     id="defs28" /><sodipodi:namedview
     pagecolor="#ffffff"
     bordercolor="#666666"
     borderopacity="1"
     objecttolerance="10"
     gridtolerance="10"
     guidetolerance="10"
     inkscape:pageopacity="0"
     inkscape:pageshadow="2"
     inkscape:window-width="1323"
     inkscape:window-height="744"
     id="namedview26"
     showgrid="false"
     fit-margin-top="0"
     fit-margin-left="0"
     fit-margin-right="0"
     fit-margin-bottom="0"
     inkscape:zoom="2.2582972"
     inkscape:cx="32.800003"
     inkscape:cy="9.8000008"
     inkscape:window-x="43"
     inkscape:window-y="24"
     inkscape:window-maximized="1"
     inkscape:current-layer="Слой_1" /><style
     type="text/css"
     id="style2">
	.st0{fill:#B5D13E;}
</style><g
     id="Logo_1_"
     transform="translate(-36.5,-34.599998)"><rect
       x="36.5"
       y="34.599998"
       class="st0"
       width="5.1999998"
       height="20"
       id="rect4"
       style="fill:#b5d13e" /><path
       class="st0"
       d="m 60.5,34.6 v 4.7 h -4.8 c 0,0 -1.8,0 -3,2.8 -1.2,2.9 0.3,7.3 2.8,7.7 h 4.9 v 4.8 H 53 c 0,0 -6.3,-1.2 -6.2,-10.1 0.1,-8.9 6.6,-9.9 6.6,-9.9 z"
       id="path6"
       inkscape:connector-curvature="0"
       style="fill:#b5d13e" /><g
       id="g14"><polygon
         class="st0"
         points="78.7,39.3 66.6,39.3 66.6,34.6 75.5,34.6 "
         id="polygon8"
         style="fill:#b5d13e" /><polygon
         class="st0"
         points="81.1,44.3 79.6,46.7 66.6,46.7 66.6,42.1 79.7,42.1 "
         id="polygon10"
         style="fill:#b5d13e" /><path
         class="st0"
         d="m 66.6,49.7 v 4.8 h 8.7 c 1.1,-1.6 2.3,-3.2 3.4,-4.8 -4.1,0.1 -8.1,0.1 -12.1,0 z"
         id="path12"
         inkscape:connector-curvature="0"
         style="fill:#b5d13e" /></g><g
       id="g22"><path
         class="st0"
         d="m 82.3,34.6 h 6.3 c 2.2,3.3 4.3,6.5 6.5,9.8 -2.3,3.4 -4.6,6.8 -6.9,10.2 H 82 l 6.9,-10.2 z"
         id="path16"
         inkscape:connector-curvature="0"
         style="fill:#b5d13e" /><polygon
         class="st0"
         points="102.1,34.6 96.3,42.8 93.4,38.2 95.8,34.6 "
         id="polygon18"
         style="fill:#b5d13e" /><path
         class="st0"
         d="m 96.2,46.2 c 2,2.8 3.9,5.6 5.9,8.4 -2.1,0 -4.2,0 -6.3,0 l -2.6,-4.2 z"
         id="path20"
         inkscape:connector-curvature="0"
         style="fill:#b5d13e" /></g></g></svg>