<?xml version="1.0" encoding="UTF-8" standalone="no"?>
<!-- Generator: Adobe Illustrator 19.1.1, SVG Export Plug-In . SVG Version: 6.00 Build 0)  -->

<svg
   xmlns:dc="http://purl.org/dc/elements/1.1/"
   xmlns:cc="http://creativecommons.org/ns#"
   xmlns:rdf="http://www.w3.org/1999/02/22-rdf-syntax-ns#"
   xmlns:svg="http://www.w3.org/2000/svg"
   xmlns="http://www.w3.org/2000/svg"
   xmlns:sodipodi="http://sodipodi.sourceforge.net/DTD/sodipodi-0.dtd"
   xmlns:inkscape="http://www.inkscape.org/namespaces/inkscape"
   version="1.1"
   id="Слой_1"
   x="0px"
   y="0px"
   viewBox="0 0 177.7 50.200002"
   xml:space="preserve"
   sodipodi:docname="Logo 2.svg"
   width="177.7"
   height="50.200001"
   inkscape:version="0.92.2 (unknown)"><metadata
     id="metadata78"><rdf:RDF><cc:Work
         rdf:about=""><dc:format>image/svg+xml</dc:format><dc:type
           rdf:resource="http://purl.org/dc/dcmitype/StillImage" /><dc:title></dc:title></cc:Work></rdf:RDF></metadata><defs
     id="defs76" /><sodipodi:namedview
     pagecolor="#ffffff"
     bordercolor="#666666"
     borderopacity="1"
     objecttolerance="10"
     gridtolerance="10"
     guidetolerance="10"
     inkscape:pageopacity="0"
     inkscape:pageshadow="2"
     inkscape:window-width="1323"
     inkscape:window-height="744"
     id="namedview74"
     showgrid="false"
     fit-margin-top="0"
     fit-margin-left="0"
     fit-margin-right="0"
     fit-margin-bottom="0"
     inkscape:zoom="1.4169308"
     inkscape:cx="88.849997"
     inkscape:cy="25.750002"
     inkscape:window-x="43"
     inkscape:window-y="24"
     inkscape:window-maximized="1"
     inkscape:current-layer="Слой_1" /><style
     type="text/css"
     id="style2">
	.st0{fill:#FFFFFF;}
	.st1{opacity:0.7;}
	.st2{fill:#353535;}
	.st3{fill:#00C9B3;}
</style><g
     id="g71"
     transform="translate(-21.6,-28.9)"><g
       id="Logo_3_"><rect
         x="21.6"
         y="28.9"
         class="st0"
         width="8.3000002"
         height="31.9"
         id="rect4"
         style="fill:#ffffff" /><path
         class="st0"
         d="m 59.8,28.9 v 7.5 h -7.7 c 0,0 -2.8,-0.1 -4.7,4.5 -1.9,4.6 0.4,11.6 4.5,12.2 h 7.9 v 7.6 H 47.9 c 0,0 -10,-1.9 -10,-16.1 C 38,30.5 48.4,28.9 48.4,28.9 Z"
         id="path6"
         inkscape:connector-curvature="0"
         style="fill:#ffffff" /><g
         id="g14"><polygon
           class="st0"
           points="88.8,36.4 69.5,36.4 69.5,28.9 83.7,28.9 "
           id="polygon8"
           style="fill:#ffffff" /><polygon
           class="st0"
           points="92.6,44.5 90.2,48.3 69.5,48.3 69.5,41 90.4,41 "
           id="polygon10"
           style="fill:#ffffff" /><path
           class="st0"
           d="m 69.5,53.1 v 7.7 H 83.3 C 85.1,58.3 87,55.7 88.8,53.2 82.3,53.1 75.9,53.1 69.5,53.1 Z"
           id="path12"
           inkscape:connector-curvature="0"
           style="fill:#ffffff" /></g><g
         id="g22"><path
           class="st0"
           d="m 94.5,28.9 h 10 c 3.5,5.2 6.9,10.4 10.4,15.6 -3.7,5.4 -7.3,10.9 -11,16.3 H 94 l 10.9,-16.3 z"
           id="path16"
           inkscape:connector-curvature="0"
           style="fill:#ffffff" /><polygon
           class="st0"
           points="126,28.9 116.9,42 112.2,34.8 116,28.9 "
           id="polygon18"
           style="fill:#ffffff" /><path
           class="st0"
           d="m 116.7,47.5 c 3.1,4.4 6.2,8.9 9.3,13.3 -3.3,0 -6.7,0 -10,0 l -4.2,-6.7 z"
           id="path20"
           inkscape:connector-curvature="0"
           style="fill:#ffffff" /></g></g><g
       class="st1"
       id="g57"
       style="opacity:0.7"><g
         id="g55"><path
           class="st2"
           d="m 98.1,65.9 c 0.1,0.1 0.2,0.2 0.2,0.4 0,0.2 -0.1,0.4 -0.2,0.5 -0.1,0.1 -0.3,0.1 -0.6,0.1 -0.6,0 -1.1,-0.1 -1.5,-0.1 -0.4,0 -0.8,0 -1.4,0 -0.3,1.3 -0.5,2.6 -0.7,3.9 -0.1,0.5 -0.2,1 -0.2,1.7 -0.1,0.6 -0.1,1.1 -0.2,1.5 0,0.2 -0.1,0.4 -0.3,0.5 -0.2,0.1 -0.3,0.2 -0.6,0.2 -0.2,0 -0.4,-0.1 -0.5,-0.2 -0.1,-0.1 -0.2,-0.3 -0.2,-0.4 0,-0.2 0,-0.4 0.1,-0.8 0.1,-0.4 0.1,-0.8 0.2,-1.2 0.1,-0.4 0.1,-0.8 0.2,-1.1 0.1,-0.5 0.2,-1.1 0.3,-1.6 0.1,-0.5 0.2,-1 0.3,-1.5 0,-0.1 0,-0.2 0.1,-0.4 0,-0.1 0.1,-0.3 0.1,-0.5 -0.7,0 -1.2,0.1 -1.6,0.2 -0.4,0.1 -0.7,0.2 -0.8,0.4 -0.2,0.2 -0.2,0.4 -0.2,0.6 0,0.2 0.1,0.5 0.2,0.7 0,0 0,0.1 0,0.2 0,0.1 -0.1,0.3 -0.2,0.4 -0.2,0.1 -0.3,0.2 -0.5,0.2 -0.1,0 -0.2,0 -0.3,-0.1 -0.1,-0.1 -0.3,-0.3 -0.3,-0.5 -0.1,-0.2 -0.1,-0.5 -0.1,-0.7 0,-0.6 0.2,-1.1 0.6,-1.4 0.4,-0.4 1,-0.6 1.8,-0.8 0.8,-0.2 1.8,-0.3 3.1,-0.3 0.8,0 1.4,0 1.8,0 0.5,0 0.9,0.1 1.2,0.1 -0.1,-0.2 0.1,-0.1 0.2,0 z"
           id="path25"
           inkscape:connector-curvature="0"
           style="fill:#353535" /><path
           class="st2"
           d="m 102.6,72.1 c 0.1,0.1 0.1,0.2 0.1,0.3 0,0.3 -0.1,0.5 -0.2,0.6 -0.3,0.4 -0.7,0.7 -1,0.9 -0.3,0.2 -0.7,0.4 -1.2,0.4 -0.4,0 -0.6,-0.1 -0.8,-0.3 -0.2,-0.2 -0.3,-0.5 -0.3,-0.9 0,-0.2 0,-0.5 0.1,-1 0.1,-0.4 0.1,-0.7 0.1,-0.9 0,-0.1 0,-0.2 -0.1,-0.2 -0.1,0 -0.2,0.1 -0.4,0.4 -0.2,0.2 -0.3,0.5 -0.5,0.9 -0.2,0.4 -0.3,0.8 -0.4,1.2 -0.1,0.6 -0.5,0.8 -1,0.8 -0.2,0 -0.3,-0.1 -0.4,-0.2 -0.1,-0.2 -0.1,-0.4 -0.1,-0.8 0,-0.2 0,-0.4 0,-0.5 V 72 c 0,-1.1 0.1,-2.2 0.3,-3.4 0.2,-1.2 0.5,-2.1 1,-2.9 0.4,-0.8 0.9,-1.2 1.5,-1.2 0.3,0 0.6,0.1 0.8,0.4 0.2,0.3 0.3,0.6 0.3,1.1 0,0.7 -0.2,1.4 -0.6,2.2 -0.4,0.8 -1.1,1.6 -2,2.7 0,0.4 0,0.7 0,1.1 0.2,-0.6 0.5,-1.1 0.8,-1.5 0.3,-0.4 0.6,-0.6 0.8,-0.8 0.3,-0.2 0.5,-0.2 0.8,-0.2 0.5,0 0.7,0.2 0.7,0.7 0,0.3 -0.1,0.8 -0.2,1.5 -0.1,0.6 -0.2,1 -0.2,1.2 0,0.3 0.1,0.4 0.3,0.4 0.1,0 0.3,-0.1 0.5,-0.3 0.2,-0.2 0.4,-0.4 0.8,-0.8 0.1,-0.1 0.2,-0.1 0.3,-0.1 0.1,-0.1 0.2,0 0.2,0 z m -3.7,-6 c -0.2,0.4 -0.3,0.8 -0.4,1.5 -0.1,0.6 -0.3,1.3 -0.4,2 0.4,-0.5 0.8,-1.1 1.1,-1.7 0.3,-0.6 0.4,-1.1 0.4,-1.6 0,-0.2 0,-0.4 -0.1,-0.5 0,-0.1 -0.1,-0.2 -0.2,-0.2 -0.1,-0.1 -0.3,0.1 -0.4,0.5 z"
           id="path27"
           inkscape:connector-curvature="0"
           style="fill:#353535" /><path
           class="st2"
           d="m 105.8,72.5 c 0.1,0.1 0.1,0.2 0.1,0.3 0,0.3 -0.1,0.5 -0.2,0.6 -0.2,0.3 -0.5,0.5 -0.8,0.7 -0.3,0.2 -0.7,0.3 -1.1,0.3 -0.7,0 -1.2,-0.2 -1.6,-0.6 -0.4,-0.4 -0.6,-0.9 -0.6,-1.6 0,-0.5 0.1,-0.9 0.3,-1.3 0.2,-0.4 0.5,-0.7 0.8,-1 0.4,-0.2 0.8,-0.4 1.2,-0.4 0.4,0 0.7,0.1 1,0.4 0.2,0.2 0.4,0.6 0.4,1 0,0.5 -0.2,0.9 -0.5,1.2 -0.3,0.3 -0.9,0.6 -1.8,0.8 0.2,0.3 0.5,0.5 0.8,0.5 0.3,0 0.5,-0.1 0.7,-0.2 0.2,-0.1 0.4,-0.4 0.6,-0.7 0.1,-0.1 0.2,-0.2 0.3,-0.2 0.3,0 0.4,0.1 0.4,0.2 z m -2.6,-1.6 c -0.2,0.3 -0.3,0.7 -0.3,1.1 v 0 c 0.4,-0.1 0.7,-0.2 1,-0.4 0.2,-0.2 0.4,-0.4 0.4,-0.7 0,-0.1 0,-0.2 -0.1,-0.3 -0.1,-0.1 -0.2,-0.1 -0.3,-0.1 -0.3,0 -0.5,0.1 -0.7,0.4 z"
           id="path29"
           inkscape:connector-curvature="0"
           style="fill:#353535" /><path
           class="st2"
           d="m 113.1,72.1 c 0.1,0.1 0.1,0.2 0.1,0.3 0,0.3 -0.1,0.5 -0.2,0.6 -0.3,0.4 -0.6,0.7 -1,0.9 -0.4,0.2 -0.8,0.4 -1.2,0.4 -0.6,0 -1.1,-0.3 -1.4,-0.8 -0.3,-0.6 -0.4,-1.3 -0.4,-2.2 0,-0.9 0.1,-1.8 0.3,-2.9 0.2,-1.1 0.5,-2 1,-2.8 0.4,-0.8 0.9,-1.2 1.5,-1.2 0.3,0 0.6,0.2 0.8,0.5 0.2,0.3 0.3,0.8 0.3,1.3 0,0.8 -0.2,1.8 -0.7,2.9 -0.5,1.1 -1.1,2.2 -1.9,3.3 0,0.3 0.1,0.5 0.2,0.6 0.1,0.1 0.3,0.2 0.4,0.2 0.3,0 0.5,-0.1 0.8,-0.2 0.2,-0.2 0.5,-0.4 0.8,-0.8 0.1,-0.1 0.2,-0.1 0.3,-0.1 0.2,-0.1 0.3,0 0.3,0 z m -2,-5.7 c -0.2,0.6 -0.4,1.3 -0.5,2.2 -0.2,0.9 -0.2,1.7 -0.3,2.5 0.5,-0.8 0.9,-1.6 1.2,-2.5 0.3,-0.8 0.4,-1.6 0.4,-2.2 0,-0.5 -0.1,-0.8 -0.3,-0.8 -0.1,-0.1 -0.3,0.2 -0.5,0.8 z"
           id="path31"
           inkscape:connector-curvature="0"
           style="fill:#353535" /><path
           class="st2"
           d="m 117.9,71.3 c 0,0.1 0.1,0.2 0.1,0.3 0,0.3 -0.1,0.5 -0.3,0.6 -0.4,0.1 -0.9,0.2 -1.4,0.3 -0.1,0.6 -0.4,1.1 -0.8,1.4 -0.4,0.4 -0.8,0.5 -1.3,0.5 -0.4,0 -0.8,-0.1 -1.1,-0.3 -0.3,-0.2 -0.5,-0.5 -0.7,-0.8 -0.2,-0.3 -0.2,-0.7 -0.2,-1.1 0,-0.5 0.1,-1 0.3,-1.4 0.2,-0.4 0.5,-0.7 0.8,-1 0.4,-0.2 0.8,-0.4 1.2,-0.4 0.5,0 1,0.2 1.3,0.6 0.3,0.4 0.5,0.8 0.6,1.4 0.3,0 0.7,-0.1 1.2,-0.2 0.1,0 0.1,0 0.1,0 0.1,-0.1 0.2,0 0.2,0.1 z m -3,1.7 c 0.2,-0.2 0.3,-0.4 0.3,-0.8 -0.2,-0.1 -0.4,-0.3 -0.5,-0.6 -0.1,-0.3 -0.2,-0.5 -0.2,-0.8 0,-0.1 0,-0.2 0,-0.3 h -0.1 c -0.3,0 -0.5,0.1 -0.7,0.4 -0.2,0.3 -0.3,0.6 -0.3,1.1 0,0.4 0.1,0.7 0.2,0.9 0.1,0.2 0.3,0.3 0.5,0.3 0.4,0.1 0.6,0 0.8,-0.2 z"
           id="path33"
           inkscape:connector-curvature="0"
           style="fill:#353535" /><path
           class="st2"
           d="m 122.7,72.2 c 0.1,0.1 0.1,0.2 0.1,0.3 0,0.2 0,0.3 -0.1,0.4 0,0.1 -0.1,0.2 -0.2,0.2 -0.6,0.4 -1,0.7 -1.3,0.9 l -0.7,0.5 c -0.3,1.4 -0.6,2.6 -1,3.4 -0.4,0.8 -1,1.2 -1.6,1.2 -0.4,0 -0.6,-0.1 -0.9,-0.3 -0.3,-0.2 -0.3,-0.5 -0.3,-0.9 0,-0.5 0.2,-1 0.6,-1.6 0.4,-0.6 1.1,-1.3 2.2,-2.1 l 0.1,-0.4 c -0.1,0.2 -0.3,0.3 -0.5,0.4 -0.2,0.1 -0.4,0.2 -0.6,0.2 -0.4,0 -0.8,-0.2 -1,-0.5 -0.3,-0.3 -0.4,-0.7 -0.4,-1.2 0,-0.6 0.1,-1.1 0.4,-1.6 0.3,-0.5 0.6,-0.9 1,-1.2 0.4,-0.3 0.9,-0.5 1.4,-0.5 0.2,0 0.3,0 0.3,0.1 0.1,0.1 0.1,0.2 0.1,0.3 0.1,0 0.3,0 0.5,0 0.2,0 0.3,0 0.4,0.1 0.1,0.1 0.1,0.2 0.1,0.3 0,0.1 0,0.2 0,0.2 0,0.2 -0.1,0.8 -0.3,1.6 0,0.2 -0.1,0.4 -0.1,0.6 0,0.2 -0.1,0.4 -0.1,0.6 0.5,-0.4 1.1,-0.8 1.6,-1.1 0.1,-0.1 0.2,-0.1 0.2,-0.1 0,0 0,0.1 0.1,0.2 z m -4.2,5.3 c 0.2,-0.4 0.4,-1.1 0.6,-2 -0.5,0.5 -0.9,0.9 -1.2,1.2 -0.2,0.4 -0.4,0.7 -0.4,1 0,0.1 0,0.2 0.1,0.3 0,0.1 0.1,0.1 0.2,0.1 0.3,0 0.5,-0.2 0.7,-0.6 z m 0.7,-4.4 c 0.1,-0.2 0.3,-0.5 0.3,-0.8 l 0.3,-1.8 c -0.3,0 -0.6,0.1 -0.8,0.3 -0.2,0.2 -0.4,0.5 -0.6,0.8 -0.1,0.3 -0.2,0.7 -0.2,1.1 0,0.2 0,0.4 0.1,0.5 0.1,0.1 0.2,0.2 0.4,0.2 0.2,-0.1 0.4,-0.2 0.5,-0.3 z"
           id="path35"
           inkscape:connector-curvature="0"
           style="fill:#353535" /><path
           class="st2"
           d="m 122.3,73.9 c -0.2,-0.3 -0.3,-0.7 -0.3,-1.3 0,-0.3 0,-0.7 0.1,-1.2 0.1,-0.5 0.2,-1 0.3,-1.4 0.1,-0.2 0.1,-0.4 0.3,-0.5 0.1,-0.1 0.3,-0.1 0.5,-0.1 0.4,0 0.5,0.1 0.5,0.4 0,0.2 -0.1,0.6 -0.2,1.2 -0.2,0.8 -0.3,1.3 -0.3,1.6 0,0.2 0,0.4 0.1,0.5 0.1,0.1 0.2,0.2 0.3,0.2 0.1,0 0.3,-0.1 0.5,-0.3 0.2,-0.2 0.4,-0.5 0.8,-0.8 0.1,-0.1 0.2,-0.1 0.3,-0.1 0.1,0 0.2,0 0.2,0.1 0.1,0.1 0.1,0.2 0.1,0.3 0,0.3 -0.1,0.5 -0.2,0.6 -0.7,0.8 -1.3,1.3 -1.9,1.3 -0.6,0 -0.9,-0.2 -1.1,-0.5 z m 0.4,-5.3 c -0.1,-0.1 -0.2,-0.3 -0.2,-0.6 0,-0.2 0.1,-0.4 0.3,-0.6 0.2,-0.2 0.4,-0.2 0.7,-0.2 0.3,0 0.5,0.1 0.6,0.2 0.2,0.1 0.2,0.3 0.2,0.5 0,0.3 -0.1,0.5 -0.3,0.7 -0.2,0.2 -0.4,0.2 -0.7,0.2 -0.2,0 -0.4,-0.1 -0.6,-0.2 z"
           id="path37"
           inkscape:connector-curvature="0"
           style="fill:#353535" /><path
           class="st2"
           d="m 125,73.8 c -0.4,-0.4 -0.6,-0.9 -0.6,-1.5 0,-0.6 0.1,-1.1 0.3,-1.5 0.2,-0.4 0.5,-0.8 0.9,-1 0.4,-0.2 0.7,-0.3 1.1,-0.3 0.4,0 0.7,0.1 0.9,0.3 0.2,0.2 0.3,0.5 0.3,0.9 0,0.3 -0.1,0.5 -0.2,0.7 -0.1,0.2 -0.3,0.3 -0.5,0.3 -0.1,0 -0.2,0 -0.3,-0.1 -0.1,-0.1 -0.1,-0.2 -0.1,-0.3 0,0 0,-0.1 0,-0.2 0,-0.1 0,-0.1 0,-0.1 0,-0.1 0.1,-0.2 0.1,-0.3 0,-0.1 0,-0.2 -0.1,-0.2 0,0 -0.1,-0.1 -0.2,-0.1 -0.2,0 -0.3,0.1 -0.5,0.2 -0.1,0.1 -0.3,0.3 -0.3,0.6 -0.1,0.2 -0.1,0.5 -0.1,0.8 0,0.4 0.1,0.7 0.2,0.9 0.2,0.2 0.4,0.3 0.7,0.3 0.2,0 0.5,-0.1 0.7,-0.2 0.2,-0.1 0.4,-0.3 0.6,-0.6 0.1,-0.1 0.2,-0.2 0.3,-0.2 0.1,0 0.2,0 0.2,0.1 0.1,0.1 0.1,0.2 0.1,0.3 0,0.3 -0.1,0.5 -0.2,0.6 -0.2,0.3 -0.4,0.5 -0.7,0.7 -0.3,0.2 -0.7,0.3 -1.1,0.3 -0.6,0.2 -1.2,0 -1.5,-0.4 z"
           id="path39"
           inkscape:connector-curvature="0"
           style="fill:#353535" /><path
           class="st2"
           d="m 137.1,71.3 c 0,0.1 0.1,0.2 0.1,0.3 0,0.3 -0.1,0.5 -0.3,0.6 -0.4,0.1 -0.9,0.2 -1.4,0.3 -0.1,0.6 -0.4,1.1 -0.8,1.4 -0.4,0.4 -0.8,0.5 -1.3,0.5 -0.4,0 -0.8,-0.1 -1.1,-0.3 -0.3,-0.2 -0.5,-0.5 -0.7,-0.8 -0.2,-0.3 -0.2,-0.7 -0.2,-1.1 0,-0.5 0.1,-1 0.3,-1.4 0.2,-0.4 0.5,-0.7 0.8,-1 0.4,-0.2 0.8,-0.4 1.2,-0.4 0.5,0 1,0.2 1.3,0.6 0.3,0.4 0.5,0.8 0.6,1.4 0.3,0 0.7,-0.1 1.2,-0.2 0.1,0 0.1,0 0.1,0 0.1,-0.1 0.2,0 0.2,0.1 z m -3,1.7 c 0.2,-0.2 0.3,-0.4 0.3,-0.8 -0.2,-0.1 -0.4,-0.3 -0.5,-0.6 -0.1,-0.2 -0.2,-0.5 -0.2,-0.8 0,-0.1 0,-0.2 0,-0.3 h -0.1 c -0.3,0 -0.5,0.1 -0.7,0.4 -0.2,0.3 -0.3,0.6 -0.3,1.1 0,0.4 0.1,0.7 0.2,0.9 0.1,0.2 0.3,0.3 0.5,0.3 0.4,0.1 0.6,0 0.8,-0.2 z"
           id="path41"
           inkscape:connector-curvature="0"
           style="fill:#353535" /><path
           class="st2"
           d="m 140.8,71.9 c 0,0.6 -0.4,0.8 -1.3,0.8 -0.2,0 -0.4,0 -0.7,-0.1 0.1,0.4 0.2,0.9 0.2,1.4 0.1,0.5 0.1,1 0.1,1.3 0,0.8 -0.1,1.3 -0.4,1.7 -0.2,0.4 -0.6,0.6 -1,0.6 -0.5,0 -0.9,-0.4 -1.1,-1.1 -0.2,-0.7 -0.3,-1.8 -0.3,-3.2 0,-1.3 0.1,-2.7 0.4,-4.1 0.3,-1.4 0.7,-2.5 1.2,-3.4 0.5,-0.9 1.1,-1.4 1.7,-1.4 0.3,0 0.6,0.1 0.8,0.4 0.2,0.3 0.3,0.7 0.3,1.2 0,1.6 -1,3.4 -2.9,5.4 -0.1,0.7 -0.1,1.3 -0.1,1.8 0,0.7 0,1.5 0.1,2.2 0,0.8 0.1,1.1 0.2,1.1 0.2,0 0.3,-0.4 0.3,-1.1 0,-0.5 0,-1.1 -0.1,-1.6 -0.1,-0.5 -0.2,-1 -0.3,-1.6 0,-0.1 0,-0.2 0.1,-0.3 0.1,-0.1 0.1,-0.3 0.2,-0.4 0.1,-0.1 0.2,-0.2 0.3,-0.2 0.1,0 0.3,0 0.5,0 0.1,0 0.1,0 0.2,0 0.3,0 0.6,0 0.9,-0.1 0.1,0 0.1,0 0.2,0 0.1,0 0.1,0 0.2,0 0.2,0.2 0.3,0.4 0.3,0.7 z M 139,66.2 c -0.2,0.4 -0.4,1 -0.6,1.7 -0.2,0.7 -0.3,1.4 -0.5,2.2 0.6,-0.6 1,-1.3 1.3,-2 0.3,-0.7 0.5,-1.3 0.5,-1.9 0,-0.4 -0.1,-0.6 -0.3,-0.6 -0.1,-0.1 -0.2,0.2 -0.4,0.6 z"
           id="path43"
           inkscape:connector-curvature="0"
           style="fill:#353535" /><path
           class="st2"
           d="m 148.6,72.2 c 0.1,0.1 0.1,0.2 0.1,0.3 0,0.2 0,0.3 -0.1,0.4 0,0.1 -0.1,0.2 -0.2,0.2 -0.6,0.4 -1,0.7 -1.3,0.9 l -0.7,0.5 c -0.3,1.4 -0.6,2.6 -1,3.4 -0.4,0.8 -1,1.2 -1.6,1.2 -0.4,0 -0.6,-0.1 -0.9,-0.3 -0.2,-0.2 -0.3,-0.5 -0.3,-0.9 0,-0.5 0.2,-1 0.6,-1.6 0.4,-0.6 1.1,-1.3 2.2,-2.1 l 0.1,-0.4 c -0.1,0.2 -0.3,0.3 -0.5,0.4 -0.2,0.1 -0.4,0.2 -0.6,0.2 -0.4,0 -0.8,-0.2 -1,-0.5 -0.3,-0.3 -0.4,-0.7 -0.4,-1.2 0,-0.6 0.1,-1.1 0.4,-1.6 0.3,-0.5 0.6,-0.9 1,-1.2 0.4,-0.3 0.9,-0.5 1.4,-0.5 0.2,0 0.3,0 0.3,0.1 0.1,0.1 0.1,0.2 0.1,0.3 0.1,0 0.3,0 0.5,0 0.2,0 0.3,0 0.4,0.1 0.1,0.1 0.1,0.2 0.1,0.3 0,0.1 0,0.2 0,0.2 0,0.2 -0.1,0.8 -0.3,1.6 0,0.2 -0.1,0.4 -0.1,0.6 0,0.2 -0.1,0.4 -0.1,0.6 0.5,-0.4 1.1,-0.8 1.6,-1.1 0.1,-0.1 0.2,-0.1 0.2,-0.1 -0.1,0 0,0.1 0.1,0.2 z m -4.2,5.3 c 0.2,-0.4 0.4,-1.1 0.6,-2 -0.5,0.5 -0.9,0.9 -1.2,1.2 -0.2,0.4 -0.4,0.7 -0.4,1 0,0.1 0,0.2 0.1,0.3 0,0.1 0.1,0.1 0.2,0.1 0.3,0 0.5,-0.2 0.7,-0.6 z m 0.7,-4.4 c 0.1,-0.2 0.3,-0.5 0.3,-0.8 l 0.3,-1.8 c -0.3,0 -0.6,0.1 -0.8,0.3 -0.2,0.2 -0.4,0.5 -0.6,0.8 -0.1,0.3 -0.2,0.7 -0.2,1.1 0,0.2 0,0.4 0.1,0.5 0.1,0.1 0.2,0.2 0.4,0.2 0.2,-0.1 0.4,-0.2 0.5,-0.3 z"
           id="path45"
           inkscape:connector-curvature="0"
           style="fill:#353535" /><path
           class="st2"
           d="m 148.1,74 c -0.1,-0.3 -0.2,-0.7 -0.2,-1.3 0,-0.9 0.1,-1.8 0.4,-2.6 0.1,-0.2 0.2,-0.4 0.3,-0.4 0.1,-0.1 0.3,-0.1 0.6,-0.1 0.1,0 0.2,0 0.3,0.1 0.1,0 0.1,0.1 0.1,0.2 0,0.1 -0.1,0.4 -0.2,0.8 -0.1,0.3 -0.1,0.5 -0.2,0.7 0,0.2 -0.1,0.5 -0.1,0.8 0.2,-0.6 0.5,-1.1 0.8,-1.5 0.3,-0.4 0.6,-0.6 0.8,-0.8 0.3,-0.2 0.5,-0.2 0.8,-0.2 0.5,0 0.7,0.2 0.7,0.7 0,0.1 0,0.3 -0.1,0.7 -0.1,0.3 -0.1,0.5 -0.1,0.5 0,0.2 0.1,0.4 0.3,0.4 0.2,0 0.4,-0.2 0.8,-0.5 0.1,-0.1 0.2,-0.1 0.3,-0.1 0.1,0 0.2,0 0.2,0.1 0.1,0.1 0.1,0.2 0.1,0.3 0,0.3 -0.1,0.5 -0.2,0.6 -0.2,0.2 -0.4,0.4 -0.7,0.5 -0.3,0.1 -0.5,0.2 -0.8,0.2 -0.4,0 -0.7,-0.1 -0.8,-0.3 -0.2,-0.2 -0.3,-0.4 -0.3,-0.8 0,-0.1 0,-0.2 0,-0.3 0,-0.1 0,-0.2 0,-0.3 0,-0.1 0,-0.2 -0.1,-0.2 -0.1,0 -0.2,0.1 -0.4,0.4 -0.2,0.2 -0.3,0.5 -0.5,0.9 -0.2,0.4 -0.3,0.8 -0.4,1.2 -0.1,0.3 -0.2,0.6 -0.3,0.7 -0.1,0.1 -0.3,0.2 -0.5,0.2 -0.3,-0.2 -0.5,-0.3 -0.6,-0.6 z"
           id="path47"
           inkscape:connector-curvature="0"
           style="fill:#353535" /><path
           class="st2"
           d="m 158.2,71.3 c 0,0.1 0.1,0.2 0.1,0.3 0,0.3 -0.1,0.5 -0.3,0.6 -0.4,0.1 -0.9,0.2 -1.4,0.3 -0.1,0.6 -0.4,1.1 -0.8,1.4 -0.4,0.4 -0.8,0.5 -1.3,0.5 -0.4,0 -0.8,-0.1 -1.1,-0.3 -0.3,-0.2 -0.5,-0.5 -0.7,-0.8 -0.2,-0.3 -0.2,-0.7 -0.2,-1.1 0,-0.5 0.1,-1 0.3,-1.4 0.2,-0.4 0.5,-0.7 0.8,-1 0.4,-0.2 0.8,-0.4 1.2,-0.4 0.5,0 1,0.2 1.3,0.6 0.3,0.4 0.5,0.8 0.6,1.4 0.3,0 0.7,-0.1 1.2,-0.2 0.1,0 0.1,0 0.1,0 0.1,-0.1 0.2,0 0.2,0.1 z m -3.1,1.7 c 0.2,-0.2 0.3,-0.4 0.3,-0.8 -0.2,-0.1 -0.4,-0.3 -0.5,-0.6 -0.1,-0.2 -0.2,-0.5 -0.2,-0.8 0,-0.1 0,-0.2 0,-0.3 h -0.1 c -0.3,0 -0.5,0.1 -0.7,0.4 -0.2,0.3 -0.3,0.6 -0.3,1.1 0,0.4 0.1,0.7 0.2,0.9 0.1,0.2 0.3,0.3 0.5,0.3 0.5,0.1 0.7,0 0.8,-0.2 z"
           id="path49"
           inkscape:connector-curvature="0"
           style="fill:#353535" /><path
           class="st2"
           d="m 164.3,69.8 c 0,0.1 0,0.2 -0.1,0.3 -0.6,1.3 -1.1,2.4 -1.6,3.2 -0.3,0.4 -0.5,0.7 -0.7,0.8 -0.2,0.1 -0.4,0.2 -0.7,0.2 -0.3,0 -0.5,-0.1 -0.6,-0.3 -0.1,-0.2 -0.2,-0.6 -0.3,-1.1 0,-0.2 0,-0.5 0,-0.8 -0.2,0.6 -0.4,1.1 -0.6,1.4 -0.2,0.3 -0.4,0.5 -0.5,0.7 -0.2,0.1 -0.4,0.2 -0.6,0.2 -0.3,0 -0.5,-0.1 -0.7,-0.3 -0.2,-0.2 -0.3,-0.6 -0.3,-1.1 -0.1,-1 -0.1,-1.8 -0.1,-2.6 V 70 c 0,-0.2 0.1,-0.4 0.2,-0.5 0.1,-0.1 0.3,-0.1 0.5,-0.1 0.2,0 0.3,0 0.4,0.1 0.1,0.1 0.1,0.2 0.1,0.4 0,0.8 0,1.8 0.1,3.1 0.2,-0.5 0.4,-1 0.6,-1.4 0.2,-0.4 0.4,-1 0.7,-1.7 0.1,-0.2 0.2,-0.4 0.3,-0.4 0.1,-0.1 0.2,-0.1 0.4,-0.1 0.2,0 0.3,0 0.4,0.1 0.1,0.1 0.1,0.2 0.1,0.4 v 1.6 c 0,0.7 0,1.2 0,1.5 0.3,-0.6 0.6,-1 0.8,-1.5 0.2,-0.4 0.4,-1 0.7,-1.7 0.1,-0.2 0.2,-0.4 0.3,-0.4 0.1,-0.1 0.3,-0.1 0.5,-0.1 0.6,0.2 0.7,0.3 0.7,0.5 z"
           id="path51"
           inkscape:connector-curvature="0"
           style="fill:#353535" /><path
           class="st2"
           d="m 165.2,74.4 c -0.2,-0.2 -0.3,-0.4 -0.3,-0.6 0,-0.2 0.1,-0.3 0.2,-0.5 0.1,-0.1 0.3,-0.2 0.6,-0.2 0.1,0 0.2,0 0.3,0 0.1,0 0.2,0 0.3,0 0,-0.2 0,-0.4 -0.1,-0.5 -0.1,-0.2 -0.2,-0.3 -0.3,-0.5 -0.1,-0.2 -0.2,-0.3 -0.3,-0.4 -0.2,0.4 -0.4,0.8 -0.6,1 -0.2,0.3 -0.4,0.5 -0.7,0.8 -0.1,0.1 -0.3,0.2 -0.4,0.2 -0.1,0 -0.2,0 -0.3,-0.1 -0.1,-0.1 -0.1,-0.2 -0.1,-0.3 0,-0.1 0,-0.3 0.1,-0.4 l 0.1,-0.2 c 0.4,-0.5 0.7,-0.9 0.9,-1.2 0.1,-0.2 0.3,-0.4 0.4,-0.7 0.1,-0.3 0.3,-0.7 0.5,-1.1 0.1,-0.3 0.4,-0.5 0.8,-0.5 0.2,0 0.3,0 0.4,0.1 0.1,0 0.1,0.1 0.1,0.2 0,0 0,0.1 0,0.2 0,0.1 -0.1,0.2 -0.1,0.3 -0.1,0.3 -0.2,0.5 -0.2,0.6 0,0.1 0,0.2 0.1,0.3 0.1,0.1 0.2,0.3 0.3,0.5 0.2,0.3 0.4,0.5 0.5,0.7 0.1,0.2 0.2,0.4 0.2,0.7 0,0.3 -0.1,0.6 -0.2,0.8 -0.1,0.3 -0.3,0.5 -0.6,0.6 -0.2,0.2 -0.5,0.2 -0.8,0.2 -0.3,0.2 -0.6,0.2 -0.8,0 z"
           id="path53"
           inkscape:connector-curvature="0"
           style="fill:#353535" /></g></g><g
       id="g69"><path
         class="st3"
         d="m 149.2,50.1 c 0.9,0.9 1.3,2.2 1.3,3.9 v 6.9 h -2.2 v -6.6 c 0,-1.2 -0.3,-2 -0.8,-2.6 -0.5,-0.6 -1.3,-0.9 -2.3,-0.9 -1.1,0 -2,0.3 -2.6,1 -0.6,0.7 -1,1.7 -1,2.9 v 6.1 h -2.2 v -6.6 c 0,-1.2 -0.3,-2 -0.8,-2.6 -0.5,-0.6 -1.3,-0.9 -2.3,-0.9 -1.1,0 -2,0.3 -2.6,1 -0.6,0.7 -1,1.7 -1,2.9 v 6.1 h -2.2 V 48.9 h 2.1 v 1.8 c 0.4,-0.6 1,-1.1 1.7,-1.4 0.7,-0.3 1.5,-0.5 2.4,-0.5 0.9,0 1.8,0.2 2.5,0.6 0.7,0.4 1.3,0.9 1.7,1.6 0.4,-0.7 1.1,-1.2 1.9,-1.6 0.8,-0.4 1.7,-0.6 2.7,-0.6 1.7,0 2.8,0.4 3.7,1.3 z"
         id="path59"
         inkscape:connector-curvature="0"
         style="fill:#00c9b3" /><path
         class="st3"
         d="m 165.3,55.6 h -9.7 c 0.1,1 0.6,1.9 1.4,2.5 0.8,0.6 1.8,1 2.9,1 1.4,0 2.6,-0.5 3.4,-1.4 l 1.2,1.4 c -0.5,0.6 -1.2,1.1 -2,1.4 -0.8,0.3 -1.7,0.5 -2.7,0.5 -1.3,0 -2.4,-0.3 -3.3,-0.8 -1,-0.5 -1.7,-1.2 -2.3,-2.2 -0.5,-0.9 -0.8,-2 -0.8,-3.1 0,-1.2 0.3,-2.2 0.8,-3.1 0.5,-0.9 1.2,-1.7 2.1,-2.2 0.9,-0.5 1.9,-0.8 3.1,-0.8 1.1,0 2.2,0.3 3,0.8 0.9,0.5 1.6,1.2 2.1,2.2 0.5,0.9 0.8,2 0.8,3.2 0,0.1 0,0.3 0,0.6 z m -8.4,-4.1 c -0.7,0.6 -1.1,1.5 -1.2,2.5 h 7.6 c -0.1,-1 -0.5,-1.8 -1.2,-2.5 -0.7,-0.6 -1.6,-1 -2.6,-1 -1.1,0.1 -1.9,0.4 -2.6,1 z"
         id="path61"
         inkscape:connector-curvature="0"
         style="fill:#00c9b3" /><path
         class="st3"
         d="m 179.6,44.1 v 16.7 h -2.1 v -1.9 c -0.5,0.7 -1.1,1.2 -1.8,1.5 -0.7,0.3 -1.5,0.5 -2.4,0.5 -1.2,0 -2.2,-0.3 -3.1,-0.8 -0.9,-0.5 -1.6,-1.2 -2.1,-2.1 -0.5,-0.9 -0.8,-2 -0.8,-3.2 0,-1.2 0.3,-2.3 0.8,-3.2 0.5,-0.9 1.2,-1.6 2.1,-2.1 0.9,-0.5 1.9,-0.8 3.1,-0.8 0.9,0 1.6,0.2 2.4,0.5 0.7,0.3 1.3,0.8 1.8,1.4 V 44 h 2.1 z m -4.1,14.4 c 0.6,-0.4 1.1,-0.8 1.4,-1.5 0.3,-0.6 0.5,-1.4 0.5,-2.2 0,-0.8 -0.2,-1.6 -0.5,-2.2 -0.3,-0.6 -0.8,-1.1 -1.4,-1.5 -0.6,-0.3 -1.3,-0.5 -2,-0.5 -0.8,0 -1.4,0.2 -2.1,0.5 -0.6,0.3 -1.1,0.8 -1.4,1.5 -0.4,0.6 -0.5,1.4 -0.5,2.2 0,0.8 0.2,1.6 0.5,2.2 0.4,0.6 0.8,1.1 1.4,1.5 0.6,0.4 1.3,0.5 2.1,0.5 0.7,0 1.4,-0.1 2,-0.5 z"
         id="path63"
         inkscape:connector-curvature="0"
         style="fill:#00c9b3" /><path
         class="st3"
         d="m 183.7,46.2 c -0.3,-0.3 -0.4,-0.6 -0.4,-1 0,-0.4 0.1,-0.7 0.4,-1 0.3,-0.3 0.6,-0.4 1,-0.4 0.4,0 0.8,0.1 1,0.4 0.3,0.3 0.4,0.6 0.4,1 0,0.4 -0.1,0.7 -0.4,1 -0.3,0.3 -0.6,0.4 -1,0.4 -0.4,0 -0.7,-0.1 -1,-0.4 z m -0.1,2.7 h 2.2 v 11.9 h -2.2 z"
         id="path65"
         inkscape:connector-curvature="0"
         style="fill:#00c9b3" /><path
         class="st3"
         d="m 198,50 c 0.9,0.8 1.3,2 1.3,3.6 v 7.2 h -2 v -1.6 c -0.4,0.6 -0.9,1 -1.5,1.3 -0.7,0.3 -1.5,0.4 -2.4,0.4 -1.3,0 -2.4,-0.3 -3.2,-1 -0.8,-0.6 -1.2,-1.5 -1.2,-2.5 0,-1 0.4,-1.9 1.1,-2.5 0.8,-0.6 2,-1 3.6,-1 h 3.4 v -0.4 c 0,-0.9 -0.3,-1.6 -0.8,-2.1 -0.5,-0.5 -1.3,-0.7 -2.4,-0.7 -0.7,0 -1.4,0.1 -2.1,0.3 -0.7,0.2 -1.2,0.5 -1.7,0.9 l -0.9,-1.6 c 0.6,-0.5 1.3,-0.9 2.2,-1.1 0.9,-0.3 1.8,-0.4 2.7,-0.4 1.8,0 3.1,0.4 3.9,1.2 z m -2.1,8.7 c 0.6,-0.4 1,-0.9 1.3,-1.6 v -1.7 h -3.3 c -1.8,0 -2.7,0.6 -2.7,1.8 0,0.6 0.2,1.1 0.7,1.4 0.5,0.3 1.1,0.5 1.9,0.5 0.8,0.2 1.5,0 2.1,-0.4 z"
         id="path67"
         inkscape:connector-curvature="0"
         style="fill:#00c9b3" /></g></g></svg>